<svg width="420" height="379" viewBox="0 0 420 379" fill="none" xmlns="http://www.w3.org/2000/svg">
<rect width="420" height="379" fill="white"/>
<rect width="420" height="379" fill="#0065C9"/>
<path fill-rule="evenodd" clip-rule="evenodd" d="M324.434 179.1L279.478 145.988L234.523 179.1H245.264L279.478 153.9L313.693 179.1H324.434Z" fill="white"/>
<path fill-rule="evenodd" clip-rule="evenodd" d="M261.115 140.655L182.322 80L103.529 140.655H115.329L182.322 89.0836L249.315 140.655H261.115Z" fill="white"/>
<path fill-rule="evenodd" clip-rule="evenodd" d="M132.283 126.093H124.297V216.05H132.283V126.093ZM234.083 126.093V216.05H241.26V126.093H234.083Z" fill="white"/>
<rect x="190.205" y="146" width="17.5301" height="17" fill="white"/>
<rect x="287.205" y="180" width="5.84337" height="5" fill="white"/>
<rect x="190.205" y="165" width="17.5301" height="18" fill="white"/>
<rect x="287.205" y="186" width="5.84337" height="6" fill="white"/>
<rect x="208.904" y="146" width="17.5301" height="17" fill="white"/>
<rect x="294.217" y="180" width="5.84337" height="5" fill="white"/>
<rect x="208.904" y="165" width="17.5301" height="18" fill="white"/>
<rect x="294.217" y="186" width="5.84337" height="6" fill="white"/>
<rect x="153.976" y="163" width="25.7108" height="53" rx="1" fill="#C4C4C4"/>
<ellipse cx="175.012" cy="192" rx="1.16867" ry="1" fill="#1B1A1A"/>
<path fill-rule="evenodd" clip-rule="evenodd" d="M256.019 166.823H250.56V216.05H307.98V166.823H303.229V215.855H256.019V166.823Z" fill="white"/>
<rect x="268.506" y="191" width="12.8554" height="25" fill="#C4C4C4"/>
<path d="M76.6 247V220.6H81.784V231.608L91.464 220.6H97.8L86.536 233.304L99.4 247H92.232L81.784 235.848V247H76.6ZM108.103 247.512C106.599 247.512 105.228 247.139 103.991 246.392C102.764 245.635 101.788 244.6 101.063 243.288C100.348 241.965 99.991 240.461 99.991 238.776C99.991 237.133 100.338 235.661 101.031 234.36C101.724 233.048 102.679 232.013 103.895 231.256C105.122 230.488 106.524 230.104 108.103 230.104C109.266 230.104 110.348 230.328 111.351 230.776C112.364 231.213 113.191 231.827 113.831 232.616V230.616H118.743V247H113.831V244.84C113.084 245.704 112.226 246.365 111.255 246.824C110.284 247.283 109.234 247.512 108.103 247.512ZM109.559 243.336C110.412 243.336 111.17 243.144 111.831 242.76C112.492 242.365 113.01 241.827 113.383 241.144C113.756 240.461 113.943 239.683 113.943 238.808C113.943 237.923 113.751 237.144 113.367 236.472C112.994 235.789 112.476 235.256 111.815 234.872C111.164 234.477 110.412 234.28 109.559 234.28C108.716 234.28 107.964 234.477 107.303 234.872C106.642 235.256 106.119 235.789 105.735 236.472C105.351 237.155 105.159 237.933 105.159 238.808C105.159 239.683 105.346 240.461 105.719 241.144C106.103 241.827 106.626 242.365 107.287 242.76C107.948 243.144 108.706 243.336 109.559 243.336ZM124.521 247V230.616H129.433V232.44C130.244 231.629 131.049 231.037 131.849 230.664C132.649 230.291 133.513 230.104 134.441 230.104C135.7 230.104 136.836 230.387 137.849 230.952C138.862 231.517 139.588 232.275 140.025 233.224C140.825 232.189 141.684 231.411 142.601 230.888C143.518 230.365 144.569 230.104 145.753 230.104C146.937 230.104 147.988 230.349 148.905 230.84C149.822 231.331 150.542 232.029 151.065 232.936C151.598 233.832 151.865 234.893 151.865 236.12V247H146.953V237.464C146.953 236.397 146.676 235.56 146.121 234.952C145.566 234.333 144.825 234.024 143.897 234.024C143.257 234.024 142.692 234.157 142.201 234.424C141.721 234.691 141.342 235.048 141.065 235.496C140.788 235.944 140.649 236.44 140.649 236.984V247H135.737V237.368C135.737 236.355 135.465 235.544 134.921 234.936C134.388 234.328 133.646 234.024 132.697 234.024C132.068 234.024 131.502 234.157 131.001 234.424C130.51 234.691 130.126 235.053 129.849 235.512C129.572 235.971 129.433 236.477 129.433 237.032V247H124.521ZM157.396 255.32V230.616H162.308V232.616C162.969 231.816 163.791 231.197 164.772 230.76C165.753 230.323 166.809 230.104 167.94 230.104C169.519 230.104 170.921 230.483 172.148 231.24C173.385 231.997 174.356 233.032 175.06 234.344C175.775 235.656 176.132 237.144 176.132 238.808C176.132 240.451 175.78 241.933 175.076 243.256C174.372 244.568 173.407 245.608 172.18 246.376C170.964 247.133 169.588 247.512 168.052 247.512C166.932 247.512 165.876 247.283 164.884 246.824C163.892 246.355 163.033 245.693 162.308 244.84V255.32H157.396ZM166.596 243.336C167.449 243.336 168.201 243.144 168.852 242.76C169.513 242.365 170.031 241.832 170.404 241.16C170.777 240.477 170.964 239.699 170.964 238.824C170.964 237.949 170.772 237.171 170.388 236.488C170.004 235.805 169.487 235.267 168.836 234.872C168.185 234.477 167.439 234.28 166.596 234.28C165.753 234.28 164.996 234.477 164.324 234.872C163.663 235.267 163.14 235.805 162.756 236.488C162.372 237.16 162.18 237.939 162.18 238.824C162.18 239.688 162.367 240.461 162.74 241.144C163.124 241.827 163.652 242.365 164.324 242.76C164.996 243.144 165.753 243.336 166.596 243.336ZM188.678 247.512C185.691 247.512 183.537 246.92 182.214 245.736C180.891 244.552 180.23 242.616 180.23 239.928V230.616H185.142V238.776C185.142 240.504 185.409 241.725 185.942 242.44C186.486 243.155 187.398 243.512 188.678 243.512C189.979 243.512 190.891 243.155 191.414 242.44C191.947 241.725 192.214 240.504 192.214 238.776V230.616H197.126V239.928C197.126 242.616 196.465 244.552 195.142 245.736C193.83 246.92 191.675 247.512 188.678 247.512ZM202.521 247V230.616H207.433V232.44C208.062 231.736 208.846 231.171 209.785 230.744C210.734 230.317 211.78 230.104 212.921 230.104C214.18 230.104 215.284 230.381 216.233 230.936C217.193 231.48 217.945 232.243 218.489 233.224C219.033 234.195 219.305 235.331 219.305 236.632V247H214.393V237.672C214.393 236.499 214.084 235.587 213.465 234.936C212.857 234.275 212.02 233.944 210.953 233.944C210.228 233.944 209.598 234.093 209.065 234.392C208.542 234.68 208.137 235.08 207.849 235.592C207.572 236.093 207.433 236.664 207.433 237.304V247H202.521ZM232.659 255.8C230.451 255.8 228.595 255.395 227.091 254.584C225.587 253.784 224.494 252.6 223.811 251.032L227.811 249.08C228.259 249.837 228.92 250.44 229.795 250.888C230.67 251.336 231.619 251.56 232.643 251.56C233.571 251.56 234.387 251.373 235.091 251C235.795 250.637 236.344 250.12 236.739 249.448C237.134 248.787 237.331 248.019 237.331 247.144V244.84C236.606 245.683 235.747 246.339 234.755 246.808C233.763 247.277 232.696 247.512 231.555 247.512C230.072 247.512 228.718 247.144 227.491 246.408C226.275 245.661 225.304 244.632 224.579 243.32C223.854 242.008 223.491 240.504 223.491 238.808C223.491 237.144 223.843 235.661 224.547 234.36C225.262 233.048 226.232 232.013 227.459 231.256C228.696 230.488 230.104 230.104 231.683 230.104C232.835 230.104 233.902 230.328 234.883 230.776C235.864 231.213 236.68 231.827 237.331 232.616V230.616H242.243V247.448C242.243 249.059 241.891 250.493 241.187 251.752C240.494 253.011 239.438 253.997 238.019 254.712C236.6 255.437 234.814 255.8 232.659 255.8ZM233.027 243.336C233.891 243.336 234.654 243.144 235.315 242.76C235.987 242.365 236.51 241.832 236.883 241.16C237.256 240.477 237.443 239.704 237.443 238.84C237.443 237.955 237.251 237.171 236.867 236.488C236.494 235.805 235.976 235.267 235.315 234.872C234.654 234.477 233.902 234.28 233.059 234.28C232.216 234.28 231.464 234.477 230.803 234.872C230.142 235.267 229.619 235.811 229.235 236.504C228.851 237.187 228.659 237.965 228.659 238.84C228.659 239.704 228.846 240.477 229.219 241.16C229.592 241.832 230.11 242.365 230.771 242.76C231.432 243.144 232.184 243.336 233.027 243.336Z" fill="white"/>
<path d="M196.973 288V261.6H204.221C206.099 261.6 207.843 261.936 209.453 262.608C211.064 263.28 212.472 264.219 213.677 265.424C214.893 266.629 215.837 268.032 216.509 269.632C217.192 271.232 217.533 272.96 217.533 274.816C217.533 276.683 217.197 278.416 216.525 280.016C215.853 281.605 214.909 283.003 213.693 284.208C212.488 285.403 211.075 286.336 209.453 287.008C207.843 287.669 206.099 288 204.221 288H196.973ZM202.157 283.36H203.645C204.84 283.36 205.944 283.147 206.957 282.72C207.971 282.293 208.851 281.696 209.597 280.928C210.344 280.16 210.925 279.259 211.341 278.224C211.757 277.179 211.965 276.037 211.965 274.8C211.965 273.573 211.757 272.443 211.341 271.408C210.925 270.363 210.344 269.456 209.597 268.688C208.851 267.909 207.971 267.307 206.957 266.88C205.944 266.453 204.84 266.24 203.645 266.24H202.157V283.36ZM222.035 288V271.616H226.947V288H222.035ZM224.499 268.208C223.965 268.208 223.475 268.08 223.027 267.824C222.589 267.557 222.237 267.2 221.971 266.752C221.704 266.304 221.571 265.813 221.571 265.28C221.571 264.747 221.704 264.261 221.971 263.824C222.237 263.387 222.589 263.04 223.027 262.784C223.475 262.517 223.965 262.384 224.499 262.384C225.032 262.384 225.517 262.517 225.955 262.784C226.392 263.04 226.739 263.387 226.995 263.824C227.261 264.261 227.395 264.747 227.395 265.28C227.395 265.813 227.261 266.304 226.995 266.752C226.739 267.2 226.392 267.557 225.955 267.824C225.517 268.08 225.032 268.208 224.499 268.208ZM240.626 296.8C238.418 296.8 236.562 296.395 235.058 295.584C233.554 294.784 232.461 293.6 231.778 292.032L235.778 290.08C236.226 290.837 236.888 291.44 237.762 291.888C238.637 292.336 239.586 292.56 240.61 292.56C241.538 292.56 242.354 292.373 243.058 292C243.762 291.637 244.312 291.12 244.706 290.448C245.101 289.787 245.298 289.019 245.298 288.144V285.84C244.573 286.683 243.714 287.339 242.722 287.808C241.73 288.277 240.664 288.512 239.522 288.512C238.04 288.512 236.685 288.144 235.458 287.408C234.242 286.661 233.272 285.632 232.546 284.32C231.821 283.008 231.458 281.504 231.458 279.808C231.458 278.144 231.81 276.661 232.514 275.36C233.229 274.048 234.2 273.013 235.426 272.256C236.664 271.488 238.072 271.104 239.65 271.104C240.802 271.104 241.869 271.328 242.85 271.776C243.832 272.213 244.648 272.827 245.298 273.616V271.616H250.21V288.448C250.21 290.059 249.858 291.493 249.154 292.752C248.461 294.011 247.405 294.997 245.986 295.712C244.568 296.437 242.781 296.8 240.626 296.8ZM240.994 284.336C241.858 284.336 242.621 284.144 243.282 283.76C243.954 283.365 244.477 282.832 244.85 282.16C245.224 281.477 245.41 280.704 245.41 279.84C245.41 278.955 245.218 278.171 244.834 277.488C244.461 276.805 243.944 276.267 243.282 275.872C242.621 275.477 241.869 275.28 241.026 275.28C240.184 275.28 239.432 275.477 238.77 275.872C238.109 276.267 237.586 276.811 237.202 277.504C236.818 278.187 236.626 278.965 236.626 279.84C236.626 280.704 236.813 281.477 237.186 282.16C237.56 282.832 238.077 283.365 238.738 283.76C239.4 284.144 240.152 284.336 240.994 284.336ZM255.972 288V271.616H260.884V288H255.972ZM258.436 268.208C257.903 268.208 257.412 268.08 256.964 267.824C256.527 267.557 256.175 267.2 255.908 266.752C255.642 266.304 255.508 265.813 255.508 265.28C255.508 264.747 255.642 264.261 255.908 263.824C256.175 263.387 256.527 263.04 256.964 262.784C257.412 262.517 257.903 262.384 258.436 262.384C258.97 262.384 259.455 262.517 259.892 262.784C260.33 263.04 260.676 263.387 260.932 263.824C261.199 264.261 261.332 264.747 261.332 265.28C261.332 265.813 261.199 266.304 260.932 266.752C260.676 267.2 260.33 267.557 259.892 267.824C259.455 268.08 258.97 268.208 258.436 268.208ZM272.324 288.512C270.692 288.512 269.422 287.995 268.516 286.96C267.609 285.915 267.156 284.459 267.156 282.592V275.344H264.964V271.616H267.156V265.472H272.068V271.616H275.668V275.344H272.068V282.24C272.068 282.859 272.19 283.328 272.436 283.648C272.692 283.968 273.049 284.128 273.508 284.128C274.02 284.128 274.51 283.957 274.98 283.616L276.212 287.552C275.657 287.851 275.033 288.085 274.34 288.256C273.657 288.427 272.985 288.512 272.324 288.512ZM287.226 288.512C285.722 288.512 284.352 288.139 283.114 287.392C281.888 286.635 280.912 285.6 280.186 284.288C279.472 282.965 279.114 281.461 279.114 279.776C279.114 278.133 279.461 276.661 280.154 275.36C280.848 274.048 281.802 273.013 283.018 272.256C284.245 271.488 285.648 271.104 287.226 271.104C288.389 271.104 289.472 271.328 290.474 271.776C291.488 272.213 292.314 272.827 292.954 273.616V271.616H297.866V288H292.954V285.84C292.208 286.704 291.349 287.365 290.378 287.824C289.408 288.283 288.357 288.512 287.226 288.512ZM288.682 284.336C289.536 284.336 290.293 284.144 290.954 283.76C291.616 283.365 292.133 282.827 292.506 282.144C292.88 281.461 293.066 280.683 293.066 279.808C293.066 278.923 292.874 278.144 292.49 277.472C292.117 276.789 291.6 276.256 290.938 275.872C290.288 275.477 289.536 275.28 288.682 275.28C287.84 275.28 287.088 275.477 286.426 275.872C285.765 276.256 285.242 276.789 284.858 277.472C284.474 278.155 284.282 278.933 284.282 279.808C284.282 280.683 284.469 281.461 284.842 282.144C285.226 282.827 285.749 283.365 286.41 283.76C287.072 284.144 287.829 284.336 288.682 284.336ZM303.644 288V260.48H308.556V288H303.644Z" fill="white"/>
<rect x="29.5" y="31.5" width="361" height="317" rx="47.5" stroke="white" stroke-width="5"/>
</svg>
