<svg width="282" height="256" viewBox="0 0 282 256" fill="none" xmlns="http://www.w3.org/2000/svg">
<rect width="282" height="256" fill="white"/>
<g clip-path="url(#clip0_0_1)">
<rect width="282" height="256" rx="50" fill="#0065C9"/>
<path fill-rule="evenodd" clip-rule="evenodd" d="M270.434 109.1L225.478 75.9884L180.523 109.1H191.264L225.478 83.8999L259.693 109.1H270.434Z" fill="white"/>
<path fill-rule="evenodd" clip-rule="evenodd" d="M207.115 70.6551L128.322 10L49.5287 70.6551H61.3286L128.322 19.0836L195.315 70.6551H207.115Z" fill="white"/>
<path fill-rule="evenodd" clip-rule="evenodd" d="M78.2834 56.093H70.2972V146.05H78.2834V56.093ZM180.083 56.093V146.05H187.26V56.093H180.083Z" fill="white"/>
<rect x="136.205" y="76" width="17.5301" height="17" fill="white"/>
<rect x="233.205" y="110" width="5.84337" height="5" fill="white"/>
<rect x="136.205" y="95" width="17.5301" height="18" fill="white"/>
<rect x="233.205" y="116" width="5.84337" height="6" fill="white"/>
<rect x="154.904" y="76" width="17.5301" height="17" fill="white"/>
<rect x="240.217" y="110" width="5.84337" height="5" fill="white"/>
<rect x="154.904" y="95" width="17.5301" height="18" fill="white"/>
<rect x="240.217" y="116" width="5.84337" height="6" fill="white"/>
<rect x="99.9759" y="93" width="25.7108" height="53" rx="1" fill="#C4C4C4"/>
<ellipse cx="121.012" cy="122" rx="1.16867" ry="1" fill="#1B1A1A"/>
<path fill-rule="evenodd" clip-rule="evenodd" d="M202.019 96.8228H196.56V146.05H253.98V96.8228H249.229V145.855H202.019V96.8228Z" fill="white"/>
<rect x="214.506" y="121" width="12.8554" height="25" fill="#C4C4C4"/>
<path d="M22.6 177V150.6H27.784V161.608L37.464 150.6H43.8L32.536 163.304L45.4 177H38.232L27.784 165.848V177H22.6ZM54.103 177.512C52.599 177.512 51.2283 177.139 49.991 176.392C48.7643 175.635 47.7883 174.6 47.063 173.288C46.3483 171.965 45.991 170.461 45.991 168.776C45.991 167.133 46.3377 165.661 47.031 164.36C47.7243 163.048 48.679 162.013 49.895 161.256C51.1217 160.488 52.5243 160.104 54.103 160.104C55.2657 160.104 56.3483 160.328 57.351 160.776C58.3643 161.213 59.191 161.827 59.831 162.616V160.616H64.743V177H59.831V174.84C59.0843 175.704 58.2257 176.365 57.255 176.824C56.2843 177.283 55.2337 177.512 54.103 177.512ZM55.559 173.336C56.4123 173.336 57.1697 173.144 57.831 172.76C58.4923 172.365 59.0097 171.827 59.383 171.144C59.7563 170.461 59.943 169.683 59.943 168.808C59.943 167.923 59.751 167.144 59.367 166.472C58.9937 165.789 58.4763 165.256 57.815 164.872C57.1643 164.477 56.4123 164.28 55.559 164.28C54.7163 164.28 53.9643 164.477 53.303 164.872C52.6417 165.256 52.119 165.789 51.735 166.472C51.351 167.155 51.159 167.933 51.159 168.808C51.159 169.683 51.3457 170.461 51.719 171.144C52.103 171.827 52.6257 172.365 53.287 172.76C53.9483 173.144 54.7057 173.336 55.559 173.336ZM70.521 177V160.616H75.433V162.44C76.2437 161.629 77.049 161.037 77.849 160.664C78.649 160.291 79.513 160.104 80.441 160.104C81.6997 160.104 82.8357 160.387 83.849 160.952C84.8623 161.517 85.5877 162.275 86.025 163.224C86.825 162.189 87.6837 161.411 88.601 160.888C89.5183 160.365 90.569 160.104 91.753 160.104C92.937 160.104 93.9877 160.349 94.905 160.84C95.8223 161.331 96.5423 162.029 97.065 162.936C97.5983 163.832 97.865 164.893 97.865 166.12V177H92.953V167.464C92.953 166.397 92.6757 165.56 92.121 164.952C91.5663 164.333 90.825 164.024 89.897 164.024C89.257 164.024 88.6917 164.157 88.201 164.424C87.721 164.691 87.3423 165.048 87.065 165.496C86.7877 165.944 86.649 166.44 86.649 166.984V177H81.737V167.368C81.737 166.355 81.465 165.544 80.921 164.936C80.3877 164.328 79.6463 164.024 78.697 164.024C78.0677 164.024 77.5023 164.157 77.001 164.424C76.5103 164.691 76.1263 165.053 75.849 165.512C75.5717 165.971 75.433 166.477 75.433 167.032V177H70.521ZM103.396 185.32V160.616H108.308V162.616C108.969 161.816 109.791 161.197 110.772 160.76C111.753 160.323 112.809 160.104 113.94 160.104C115.519 160.104 116.921 160.483 118.148 161.24C119.385 161.997 120.356 163.032 121.06 164.344C121.775 165.656 122.132 167.144 122.132 168.808C122.132 170.451 121.78 171.933 121.076 173.256C120.372 174.568 119.407 175.608 118.18 176.376C116.964 177.133 115.588 177.512 114.052 177.512C112.932 177.512 111.876 177.283 110.884 176.824C109.892 176.355 109.033 175.693 108.308 174.84V185.32H103.396ZM112.596 173.336C113.449 173.336 114.201 173.144 114.852 172.76C115.513 172.365 116.031 171.832 116.404 171.16C116.777 170.477 116.964 169.699 116.964 168.824C116.964 167.949 116.772 167.171 116.388 166.488C116.004 165.805 115.487 165.267 114.836 164.872C114.185 164.477 113.439 164.28 112.596 164.28C111.753 164.28 110.996 164.477 110.324 164.872C109.663 165.267 109.14 165.805 108.756 166.488C108.372 167.16 108.18 167.939 108.18 168.824C108.18 169.688 108.367 170.461 108.74 171.144C109.124 171.827 109.652 172.365 110.324 172.76C110.996 173.144 111.753 173.336 112.596 173.336ZM134.678 177.512C131.691 177.512 129.537 176.92 128.214 175.736C126.891 174.552 126.23 172.616 126.23 169.928V160.616H131.142V168.776C131.142 170.504 131.409 171.725 131.942 172.44C132.486 173.155 133.398 173.512 134.678 173.512C135.979 173.512 136.891 173.155 137.414 172.44C137.947 171.725 138.214 170.504 138.214 168.776V160.616H143.126V169.928C143.126 172.616 142.465 174.552 141.142 175.736C139.83 176.92 137.675 177.512 134.678 177.512ZM148.521 177V160.616H153.433V162.44C154.062 161.736 154.846 161.171 155.785 160.744C156.734 160.317 157.78 160.104 158.921 160.104C160.18 160.104 161.284 160.381 162.233 160.936C163.193 161.48 163.945 162.243 164.489 163.224C165.033 164.195 165.305 165.331 165.305 166.632V177H160.393V167.672C160.393 166.499 160.084 165.587 159.465 164.936C158.857 164.275 158.02 163.944 156.953 163.944C156.228 163.944 155.598 164.093 155.065 164.392C154.542 164.68 154.137 165.08 153.849 165.592C153.572 166.093 153.433 166.664 153.433 167.304V177H148.521ZM178.659 185.8C176.451 185.8 174.595 185.395 173.091 184.584C171.587 183.784 170.494 182.6 169.811 181.032L173.811 179.08C174.259 179.837 174.92 180.44 175.795 180.888C176.67 181.336 177.619 181.56 178.643 181.56C179.571 181.56 180.387 181.373 181.091 181C181.795 180.637 182.344 180.12 182.739 179.448C183.134 178.787 183.331 178.019 183.331 177.144V174.84C182.606 175.683 181.747 176.339 180.755 176.808C179.763 177.277 178.696 177.512 177.555 177.512C176.072 177.512 174.718 177.144 173.491 176.408C172.275 175.661 171.304 174.632 170.579 173.32C169.854 172.008 169.491 170.504 169.491 168.808C169.491 167.144 169.843 165.661 170.547 164.36C171.262 163.048 172.232 162.013 173.459 161.256C174.696 160.488 176.104 160.104 177.683 160.104C178.835 160.104 179.902 160.328 180.883 160.776C181.864 161.213 182.68 161.827 183.331 162.616V160.616H188.243V177.448C188.243 179.059 187.891 180.493 187.187 181.752C186.494 183.011 185.438 183.997 184.019 184.712C182.6 185.437 180.814 185.8 178.659 185.8ZM179.027 173.336C179.891 173.336 180.654 173.144 181.315 172.76C181.987 172.365 182.51 171.832 182.883 171.16C183.256 170.477 183.443 169.704 183.443 168.84C183.443 167.955 183.251 167.171 182.867 166.488C182.494 165.805 181.976 165.267 181.315 164.872C180.654 164.477 179.902 164.28 179.059 164.28C178.216 164.28 177.464 164.477 176.803 164.872C176.142 165.267 175.619 165.811 175.235 166.504C174.851 167.187 174.659 167.965 174.659 168.84C174.659 169.704 174.846 170.477 175.219 171.16C175.592 171.832 176.11 172.365 176.771 172.76C177.432 173.144 178.184 173.336 179.027 173.336Z" fill="white"/>
<path d="M142.973 218V191.6H150.221C152.099 191.6 153.843 191.936 155.453 192.608C157.064 193.28 158.472 194.219 159.677 195.424C160.893 196.629 161.837 198.032 162.509 199.632C163.192 201.232 163.533 202.96 163.533 204.816C163.533 206.683 163.197 208.416 162.525 210.016C161.853 211.605 160.909 213.003 159.693 214.208C158.488 215.403 157.075 216.336 155.453 217.008C153.843 217.669 152.099 218 150.221 218H142.973ZM148.157 213.36H149.645C150.84 213.36 151.944 213.147 152.957 212.72C153.971 212.293 154.851 211.696 155.597 210.928C156.344 210.16 156.925 209.259 157.341 208.224C157.757 207.179 157.965 206.037 157.965 204.8C157.965 203.573 157.757 202.443 157.341 201.408C156.925 200.363 156.344 199.456 155.597 198.688C154.851 197.909 153.971 197.307 152.957 196.88C151.944 196.453 150.84 196.24 149.645 196.24H148.157V213.36ZM168.035 218V201.616H172.947V218H168.035ZM170.499 198.208C169.965 198.208 169.475 198.08 169.027 197.824C168.589 197.557 168.237 197.2 167.971 196.752C167.704 196.304 167.571 195.813 167.571 195.28C167.571 194.747 167.704 194.261 167.971 193.824C168.237 193.387 168.589 193.04 169.027 192.784C169.475 192.517 169.965 192.384 170.499 192.384C171.032 192.384 171.517 192.517 171.955 192.784C172.392 193.04 172.739 193.387 172.995 193.824C173.261 194.261 173.395 194.747 173.395 195.28C173.395 195.813 173.261 196.304 172.995 196.752C172.739 197.2 172.392 197.557 171.955 197.824C171.517 198.08 171.032 198.208 170.499 198.208ZM186.626 226.8C184.418 226.8 182.562 226.395 181.058 225.584C179.554 224.784 178.461 223.6 177.778 222.032L181.778 220.08C182.226 220.837 182.888 221.44 183.762 221.888C184.637 222.336 185.586 222.56 186.61 222.56C187.538 222.56 188.354 222.373 189.058 222C189.762 221.637 190.312 221.12 190.706 220.448C191.101 219.787 191.298 219.019 191.298 218.144V215.84C190.573 216.683 189.714 217.339 188.722 217.808C187.73 218.277 186.664 218.512 185.522 218.512C184.04 218.512 182.685 218.144 181.458 217.408C180.242 216.661 179.272 215.632 178.546 214.32C177.821 213.008 177.458 211.504 177.458 209.808C177.458 208.144 177.81 206.661 178.514 205.36C179.229 204.048 180.2 203.013 181.426 202.256C182.664 201.488 184.072 201.104 185.65 201.104C186.802 201.104 187.869 201.328 188.85 201.776C189.832 202.213 190.648 202.827 191.298 203.616V201.616H196.21V218.448C196.21 220.059 195.858 221.493 195.154 222.752C194.461 224.011 193.405 224.997 191.986 225.712C190.568 226.437 188.781 226.8 186.626 226.8ZM186.994 214.336C187.858 214.336 188.621 214.144 189.282 213.76C189.954 213.365 190.477 212.832 190.85 212.16C191.224 211.477 191.41 210.704 191.41 209.84C191.41 208.955 191.218 208.171 190.834 207.488C190.461 206.805 189.944 206.267 189.282 205.872C188.621 205.477 187.869 205.28 187.026 205.28C186.184 205.28 185.432 205.477 184.77 205.872C184.109 206.267 183.586 206.811 183.202 207.504C182.818 208.187 182.626 208.965 182.626 209.84C182.626 210.704 182.813 211.477 183.186 212.16C183.56 212.832 184.077 213.365 184.738 213.76C185.4 214.144 186.152 214.336 186.994 214.336ZM201.972 218V201.616H206.884V218H201.972ZM204.436 198.208C203.903 198.208 203.412 198.08 202.964 197.824C202.527 197.557 202.175 197.2 201.908 196.752C201.642 196.304 201.508 195.813 201.508 195.28C201.508 194.747 201.642 194.261 201.908 193.824C202.175 193.387 202.527 193.04 202.964 192.784C203.412 192.517 203.903 192.384 204.436 192.384C204.97 192.384 205.455 192.517 205.892 192.784C206.33 193.04 206.676 193.387 206.932 193.824C207.199 194.261 207.332 194.747 207.332 195.28C207.332 195.813 207.199 196.304 206.932 196.752C206.676 197.2 206.33 197.557 205.892 197.824C205.455 198.08 204.97 198.208 204.436 198.208ZM218.324 218.512C216.692 218.512 215.422 217.995 214.516 216.96C213.609 215.915 213.156 214.459 213.156 212.592V205.344H210.964V201.616H213.156V195.472H218.068V201.616H221.668V205.344H218.068V212.24C218.068 212.859 218.19 213.328 218.436 213.648C218.692 213.968 219.049 214.128 219.508 214.128C220.02 214.128 220.51 213.957 220.98 213.616L222.212 217.552C221.657 217.851 221.033 218.085 220.34 218.256C219.657 218.427 218.985 218.512 218.324 218.512ZM233.226 218.512C231.722 218.512 230.352 218.139 229.114 217.392C227.888 216.635 226.912 215.6 226.186 214.288C225.472 212.965 225.114 211.461 225.114 209.776C225.114 208.133 225.461 206.661 226.154 205.36C226.848 204.048 227.802 203.013 229.018 202.256C230.245 201.488 231.648 201.104 233.226 201.104C234.389 201.104 235.472 201.328 236.474 201.776C237.488 202.213 238.314 202.827 238.954 203.616V201.616H243.866V218H238.954V215.84C238.208 216.704 237.349 217.365 236.378 217.824C235.408 218.283 234.357 218.512 233.226 218.512ZM234.682 214.336C235.536 214.336 236.293 214.144 236.954 213.76C237.616 213.365 238.133 212.827 238.506 212.144C238.88 211.461 239.066 210.683 239.066 209.808C239.066 208.923 238.874 208.144 238.49 207.472C238.117 206.789 237.6 206.256 236.938 205.872C236.288 205.477 235.536 205.28 234.682 205.28C233.84 205.28 233.088 205.477 232.426 205.872C231.765 206.256 231.242 206.789 230.858 207.472C230.474 208.155 230.282 208.933 230.282 209.808C230.282 210.683 230.469 211.461 230.842 212.144C231.226 212.827 231.749 213.365 232.41 213.76C233.072 214.144 233.829 214.336 234.682 214.336ZM249.644 218V190.48H254.556V218H249.644Z" fill="white"/>
<rect x="16.5" y="15.5" width="250" height="226" rx="47.5" stroke="white" stroke-width="5"/>
</g>
<defs>
<clipPath id="clip0_0_1">
<rect width="282" height="256" rx="50" fill="white"/>
</clipPath>
</defs>
</svg>
