<svg width="282" height="256" viewBox="0 0 282 256" fill="none" xmlns="http://www.w3.org/2000/svg">
<rect width="282" height="256" fill="white"/>
<g clip-path="url(#clip0_0_1)">
<rect width="282" height="256" fill="#0065C9"/>
<path fill-rule="evenodd" clip-rule="evenodd" d="M269.434 113.1L224.478 79.9884L179.523 113.1H190.264L224.478 87.8999L258.693 113.1H269.434Z" fill="white"/>
<path fill-rule="evenodd" clip-rule="evenodd" d="M206.115 74.6551L127.322 14L48.5287 74.6551H60.3286L127.322 23.0836L194.315 74.6551H206.115Z" fill="white"/>
<path fill-rule="evenodd" clip-rule="evenodd" d="M77.2834 60.093H69.2972V150.05H77.2834V60.093ZM179.083 60.093V150.05H186.26V60.093H179.083Z" fill="white"/>
<rect x="135.205" y="80" width="17.5301" height="17" fill="white"/>
<rect x="232.205" y="114" width="5.84337" height="5" fill="white"/>
<rect x="135.205" y="99" width="17.5301" height="18" fill="white"/>
<rect x="232.205" y="120" width="5.84337" height="6" fill="white"/>
<rect x="153.904" y="80" width="17.5301" height="17" fill="white"/>
<rect x="239.217" y="114" width="5.84337" height="5" fill="white"/>
<rect x="153.904" y="99" width="17.5301" height="18" fill="white"/>
<rect x="239.217" y="120" width="5.84337" height="6" fill="white"/>
<rect x="98.9759" y="97" width="25.7108" height="53" rx="1" fill="#C4C4C4"/>
<ellipse cx="120.012" cy="126" rx="1.16867" ry="1" fill="#1B1A1A"/>
<path fill-rule="evenodd" clip-rule="evenodd" d="M201.019 100.823H195.56V150.05H252.98V100.823H248.229V149.855H201.019V100.823Z" fill="white"/>
<rect x="213.506" y="125" width="12.8554" height="25" fill="#C4C4C4"/>
<path d="M21.6 181V154.6H26.784V165.608L36.464 154.6H42.8L31.536 167.304L44.4 181H37.232L26.784 169.848V181H21.6ZM53.103 181.512C51.599 181.512 50.2283 181.139 48.991 180.392C47.7643 179.635 46.7883 178.6 46.063 177.288C45.3483 175.965 44.991 174.461 44.991 172.776C44.991 171.133 45.3377 169.661 46.031 168.36C46.7243 167.048 47.679 166.013 48.895 165.256C50.1217 164.488 51.5243 164.104 53.103 164.104C54.2657 164.104 55.3483 164.328 56.351 164.776C57.3643 165.213 58.191 165.827 58.831 166.616V164.616H63.743V181H58.831V178.84C58.0843 179.704 57.2257 180.365 56.255 180.824C55.2843 181.283 54.2337 181.512 53.103 181.512ZM54.559 177.336C55.4123 177.336 56.1697 177.144 56.831 176.76C57.4923 176.365 58.0097 175.827 58.383 175.144C58.7563 174.461 58.943 173.683 58.943 172.808C58.943 171.923 58.751 171.144 58.367 170.472C57.9937 169.789 57.4763 169.256 56.815 168.872C56.1643 168.477 55.4123 168.28 54.559 168.28C53.7163 168.28 52.9643 168.477 52.303 168.872C51.6417 169.256 51.119 169.789 50.735 170.472C50.351 171.155 50.159 171.933 50.159 172.808C50.159 173.683 50.3457 174.461 50.719 175.144C51.103 175.827 51.6257 176.365 52.287 176.76C52.9483 177.144 53.7057 177.336 54.559 177.336ZM69.521 181V164.616H74.433V166.44C75.2437 165.629 76.049 165.037 76.849 164.664C77.649 164.291 78.513 164.104 79.441 164.104C80.6997 164.104 81.8357 164.387 82.849 164.952C83.8623 165.517 84.5877 166.275 85.025 167.224C85.825 166.189 86.6837 165.411 87.601 164.888C88.5183 164.365 89.569 164.104 90.753 164.104C91.937 164.104 92.9877 164.349 93.905 164.84C94.8223 165.331 95.5423 166.029 96.065 166.936C96.5983 167.832 96.865 168.893 96.865 170.12V181H91.953V171.464C91.953 170.397 91.6757 169.56 91.121 168.952C90.5663 168.333 89.825 168.024 88.897 168.024C88.257 168.024 87.6917 168.157 87.201 168.424C86.721 168.691 86.3423 169.048 86.065 169.496C85.7877 169.944 85.649 170.44 85.649 170.984V181H80.737V171.368C80.737 170.355 80.465 169.544 79.921 168.936C79.3877 168.328 78.6463 168.024 77.697 168.024C77.0677 168.024 76.5023 168.157 76.001 168.424C75.5103 168.691 75.1263 169.053 74.849 169.512C74.5717 169.971 74.433 170.477 74.433 171.032V181H69.521ZM102.396 189.32V164.616H107.308V166.616C107.969 165.816 108.791 165.197 109.772 164.76C110.753 164.323 111.809 164.104 112.94 164.104C114.519 164.104 115.921 164.483 117.148 165.24C118.385 165.997 119.356 167.032 120.06 168.344C120.775 169.656 121.132 171.144 121.132 172.808C121.132 174.451 120.78 175.933 120.076 177.256C119.372 178.568 118.407 179.608 117.18 180.376C115.964 181.133 114.588 181.512 113.052 181.512C111.932 181.512 110.876 181.283 109.884 180.824C108.892 180.355 108.033 179.693 107.308 178.84V189.32H102.396ZM111.596 177.336C112.449 177.336 113.201 177.144 113.852 176.76C114.513 176.365 115.031 175.832 115.404 175.16C115.777 174.477 115.964 173.699 115.964 172.824C115.964 171.949 115.772 171.171 115.388 170.488C115.004 169.805 114.487 169.267 113.836 168.872C113.185 168.477 112.439 168.28 111.596 168.28C110.753 168.28 109.996 168.477 109.324 168.872C108.663 169.267 108.14 169.805 107.756 170.488C107.372 171.16 107.18 171.939 107.18 172.824C107.18 173.688 107.367 174.461 107.74 175.144C108.124 175.827 108.652 176.365 109.324 176.76C109.996 177.144 110.753 177.336 111.596 177.336ZM133.678 181.512C130.691 181.512 128.537 180.92 127.214 179.736C125.891 178.552 125.23 176.616 125.23 173.928V164.616H130.142V172.776C130.142 174.504 130.409 175.725 130.942 176.44C131.486 177.155 132.398 177.512 133.678 177.512C134.979 177.512 135.891 177.155 136.414 176.44C136.947 175.725 137.214 174.504 137.214 172.776V164.616H142.126V173.928C142.126 176.616 141.465 178.552 140.142 179.736C138.83 180.92 136.675 181.512 133.678 181.512ZM147.521 181V164.616H152.433V166.44C153.062 165.736 153.846 165.171 154.785 164.744C155.734 164.317 156.78 164.104 157.921 164.104C159.18 164.104 160.284 164.381 161.233 164.936C162.193 165.48 162.945 166.243 163.489 167.224C164.033 168.195 164.305 169.331 164.305 170.632V181H159.393V171.672C159.393 170.499 159.084 169.587 158.465 168.936C157.857 168.275 157.02 167.944 155.953 167.944C155.228 167.944 154.598 168.093 154.065 168.392C153.542 168.68 153.137 169.08 152.849 169.592C152.572 170.093 152.433 170.664 152.433 171.304V181H147.521ZM177.659 189.8C175.451 189.8 173.595 189.395 172.091 188.584C170.587 187.784 169.494 186.6 168.811 185.032L172.811 183.08C173.259 183.837 173.92 184.44 174.795 184.888C175.67 185.336 176.619 185.56 177.643 185.56C178.571 185.56 179.387 185.373 180.091 185C180.795 184.637 181.344 184.12 181.739 183.448C182.134 182.787 182.331 182.019 182.331 181.144V178.84C181.606 179.683 180.747 180.339 179.755 180.808C178.763 181.277 177.696 181.512 176.555 181.512C175.072 181.512 173.718 181.144 172.491 180.408C171.275 179.661 170.304 178.632 169.579 177.32C168.854 176.008 168.491 174.504 168.491 172.808C168.491 171.144 168.843 169.661 169.547 168.36C170.262 167.048 171.232 166.013 172.459 165.256C173.696 164.488 175.104 164.104 176.683 164.104C177.835 164.104 178.902 164.328 179.883 164.776C180.864 165.213 181.68 165.827 182.331 166.616V164.616H187.243V181.448C187.243 183.059 186.891 184.493 186.187 185.752C185.494 187.011 184.438 187.997 183.019 188.712C181.6 189.437 179.814 189.8 177.659 189.8ZM178.027 177.336C178.891 177.336 179.654 177.144 180.315 176.76C180.987 176.365 181.51 175.832 181.883 175.16C182.256 174.477 182.443 173.704 182.443 172.84C182.443 171.955 182.251 171.171 181.867 170.488C181.494 169.805 180.976 169.267 180.315 168.872C179.654 168.477 178.902 168.28 178.059 168.28C177.216 168.28 176.464 168.477 175.803 168.872C175.142 169.267 174.619 169.811 174.235 170.504C173.851 171.187 173.659 171.965 173.659 172.84C173.659 173.704 173.846 174.477 174.219 175.16C174.592 175.832 175.11 176.365 175.771 176.76C176.432 177.144 177.184 177.336 178.027 177.336Z" fill="white"/>
<path d="M141.973 222V195.6H149.221C151.099 195.6 152.843 195.936 154.453 196.608C156.064 197.28 157.472 198.219 158.677 199.424C159.893 200.629 160.837 202.032 161.509 203.632C162.192 205.232 162.533 206.96 162.533 208.816C162.533 210.683 162.197 212.416 161.525 214.016C160.853 215.605 159.909 217.003 158.693 218.208C157.488 219.403 156.075 220.336 154.453 221.008C152.843 221.669 151.099 222 149.221 222H141.973ZM147.157 217.36H148.645C149.84 217.36 150.944 217.147 151.957 216.72C152.971 216.293 153.851 215.696 154.597 214.928C155.344 214.16 155.925 213.259 156.341 212.224C156.757 211.179 156.965 210.037 156.965 208.8C156.965 207.573 156.757 206.443 156.341 205.408C155.925 204.363 155.344 203.456 154.597 202.688C153.851 201.909 152.971 201.307 151.957 200.88C150.944 200.453 149.84 200.24 148.645 200.24H147.157V217.36ZM167.035 222V205.616H171.947V222H167.035ZM169.499 202.208C168.965 202.208 168.475 202.08 168.027 201.824C167.589 201.557 167.237 201.2 166.971 200.752C166.704 200.304 166.571 199.813 166.571 199.28C166.571 198.747 166.704 198.261 166.971 197.824C167.237 197.387 167.589 197.04 168.027 196.784C168.475 196.517 168.965 196.384 169.499 196.384C170.032 196.384 170.517 196.517 170.955 196.784C171.392 197.04 171.739 197.387 171.995 197.824C172.261 198.261 172.395 198.747 172.395 199.28C172.395 199.813 172.261 200.304 171.995 200.752C171.739 201.2 171.392 201.557 170.955 201.824C170.517 202.08 170.032 202.208 169.499 202.208ZM185.626 230.8C183.418 230.8 181.562 230.395 180.058 229.584C178.554 228.784 177.461 227.6 176.778 226.032L180.778 224.08C181.226 224.837 181.888 225.44 182.762 225.888C183.637 226.336 184.586 226.56 185.61 226.56C186.538 226.56 187.354 226.373 188.058 226C188.762 225.637 189.312 225.12 189.706 224.448C190.101 223.787 190.298 223.019 190.298 222.144V219.84C189.573 220.683 188.714 221.339 187.722 221.808C186.73 222.277 185.664 222.512 184.522 222.512C183.04 222.512 181.685 222.144 180.458 221.408C179.242 220.661 178.272 219.632 177.546 218.32C176.821 217.008 176.458 215.504 176.458 213.808C176.458 212.144 176.81 210.661 177.514 209.36C178.229 208.048 179.2 207.013 180.426 206.256C181.664 205.488 183.072 205.104 184.65 205.104C185.802 205.104 186.869 205.328 187.85 205.776C188.832 206.213 189.648 206.827 190.298 207.616V205.616H195.21V222.448C195.21 224.059 194.858 225.493 194.154 226.752C193.461 228.011 192.405 228.997 190.986 229.712C189.568 230.437 187.781 230.8 185.626 230.8ZM185.994 218.336C186.858 218.336 187.621 218.144 188.282 217.76C188.954 217.365 189.477 216.832 189.85 216.16C190.224 215.477 190.41 214.704 190.41 213.84C190.41 212.955 190.218 212.171 189.834 211.488C189.461 210.805 188.944 210.267 188.282 209.872C187.621 209.477 186.869 209.28 186.026 209.28C185.184 209.28 184.432 209.477 183.77 209.872C183.109 210.267 182.586 210.811 182.202 211.504C181.818 212.187 181.626 212.965 181.626 213.84C181.626 214.704 181.813 215.477 182.186 216.16C182.56 216.832 183.077 217.365 183.738 217.76C184.4 218.144 185.152 218.336 185.994 218.336ZM200.972 222V205.616H205.884V222H200.972ZM203.436 202.208C202.903 202.208 202.412 202.08 201.964 201.824C201.527 201.557 201.175 201.2 200.908 200.752C200.642 200.304 200.508 199.813 200.508 199.28C200.508 198.747 200.642 198.261 200.908 197.824C201.175 197.387 201.527 197.04 201.964 196.784C202.412 196.517 202.903 196.384 203.436 196.384C203.97 196.384 204.455 196.517 204.892 196.784C205.33 197.04 205.676 197.387 205.932 197.824C206.199 198.261 206.332 198.747 206.332 199.28C206.332 199.813 206.199 200.304 205.932 200.752C205.676 201.2 205.33 201.557 204.892 201.824C204.455 202.08 203.97 202.208 203.436 202.208ZM217.324 222.512C215.692 222.512 214.422 221.995 213.516 220.96C212.609 219.915 212.156 218.459 212.156 216.592V209.344H209.964V205.616H212.156V199.472H217.068V205.616H220.668V209.344H217.068V216.24C217.068 216.859 217.19 217.328 217.436 217.648C217.692 217.968 218.049 218.128 218.508 218.128C219.02 218.128 219.51 217.957 219.98 217.616L221.212 221.552C220.657 221.851 220.033 222.085 219.34 222.256C218.657 222.427 217.985 222.512 217.324 222.512ZM232.226 222.512C230.722 222.512 229.352 222.139 228.114 221.392C226.888 220.635 225.912 219.6 225.186 218.288C224.472 216.965 224.114 215.461 224.114 213.776C224.114 212.133 224.461 210.661 225.154 209.36C225.848 208.048 226.802 207.013 228.018 206.256C229.245 205.488 230.648 205.104 232.226 205.104C233.389 205.104 234.472 205.328 235.474 205.776C236.488 206.213 237.314 206.827 237.954 207.616V205.616H242.866V222H237.954V219.84C237.208 220.704 236.349 221.365 235.378 221.824C234.408 222.283 233.357 222.512 232.226 222.512ZM233.682 218.336C234.536 218.336 235.293 218.144 235.954 217.76C236.616 217.365 237.133 216.827 237.506 216.144C237.88 215.461 238.066 214.683 238.066 213.808C238.066 212.923 237.874 212.144 237.49 211.472C237.117 210.789 236.6 210.256 235.938 209.872C235.288 209.477 234.536 209.28 233.682 209.28C232.84 209.28 232.088 209.477 231.426 209.872C230.765 210.256 230.242 210.789 229.858 211.472C229.474 212.155 229.282 212.933 229.282 213.808C229.282 214.683 229.469 215.461 229.842 216.144C230.226 216.827 230.749 217.365 231.41 217.76C232.072 218.144 232.829 218.336 233.682 218.336ZM248.644 222V194.48H253.556V222H248.644Z" fill="white"/>
<rect x="15.5" y="19.5" width="250" height="226" rx="47.5" stroke="white" stroke-width="5"/>
</g>
<defs>
<clipPath id="clip0_0_1">
<rect width="282" height="256" fill="white"/>
</clipPath>
</defs>
</svg>
